<?xml version="1.0" encoding="utf-8"?>
<!-- Generator: Adobe Illustrator 23.1.0, SVG Export Plug-In . SVG Version: 6.00 Build 0)  -->
<svg version="1.1" id="Capa_1" xmlns="http://www.w3.org/2000/svg" xmlns:xlink="http://www.w3.org/1999/xlink" x="0px" y="0px"
	 viewBox="0 0 60 60" style="enable-background:new 0 0 60 60;" xml:space="preserve">
<style type="text/css">
	.st0{fill:#CCCCCC;}
	.st1{fill:#666666;}
</style>
<rect x="0.1" class="st0" width="59.7" height="59.7"/>
<path class="st1" d="M39.7,29.2c0,2.6-1,5-2.8,6.8c-1.8,1.8-4.3,2.8-6.8,2.8s-5-1-6.8-2.8c-1.8-1.8-2.8-4.3-2.8-6.8h-5.2
	c0,3.9,1.6,7.7,4.4,10.5C22.3,42.5,26.1,44,30,44c3.9,0,7.7-1.6,10.5-4.4c2.8-2.8,4.4-6.6,4.4-10.5H39.7z"/>
<path class="st1" d="M38.7,22.1c1.7,0,3.1-1.4,3.1-3.1c0-1.7-1.4-3.1-3.1-3.1c-1.7,0-3.1,1.4-3.1,3.1C35.7,20.8,37.1,22.1,38.7,22.1
	z"/>
<path class="st1" d="M27.4,30.1l0-1.8l0-1l-0.1-0.8L27.2,26l-0.1-0.6L27,24.9l-0.1-0.4l-0.2-0.4l-0.2-0.3l-0.2-0.3l-0.2-0.3L25.9,23
	l-0.2-0.2l-0.2-0.2l-0.3-0.2l-0.3-0.2L24.6,22l-0.4-0.2l-0.4-0.1l-0.5-0.1l-0.6-0.1l-0.6-0.1l-0.8-0.1l-1,0l-1.8,0l0-5.3l1.9,0
	l1.2,0.1l1,0.1l0.9,0.1l0.9,0.2l0.8,0.2l0.7,0.2l0.7,0.3l0.7,0.3l0.7,0.4l0.6,0.4l0.6,0.5l0.5,0.5l0.5,0.6l0.4,0.6l0.4,0.7l0.3,0.7
	l0.3,0.7l0.3,0.8l0.2,0.8l0.2,0.8l0.1,0.9l0.1,1l0,1.1l0,1.8L27.4,30.1z"/>
</svg>
