<svg width="30" height="30" viewBox="0 0 30 30" fill="none" xmlns="http://www.w3.org/2000/svg">
<path d="M28.75 0H1.25C0.5 0 0 0.5 0 1.25V28.75C0 29.5 0.5 30 1.25 30H28.75C29.5 30 30 29.5 30 28.75V1.25C30 0.5 29.5 0 28.75 0ZM8.875 25.625H4.5V11.25H9V25.625H8.875ZM6.625 9.25C5.25 9.25 4 8.125 4 6.625C4 5.25 5.125 4 6.625 4C8 4 9.25 5.125 9.25 6.625C9.25 8.125 8.125 9.25 6.625 9.25ZM25.625 25.625H21.125V18.625C21.125 17 21.125 14.875 18.875 14.875C16.5 14.875 16.25 16.625 16.25 18.5V25.625H11.75V11.25H16V13.25C16.625 12.125 18 11 20.25 11C24.75 11 25.625 14 25.625 17.875V25.625Z" fill="black"/>
</svg>
