<svg width="24" height="24" viewBox="0 0 24 24" fill="none" xmlns="http://www.w3.org/2000/svg">
<path d="M24 12.2757C24 11.46 23.9326 10.6399 23.7886 9.8374H12.2418V14.4582H18.8541C18.5797 15.9485 17.6981 17.2668 16.4071 18.1046V21.1028H20.352C22.6686 19.0129 24 15.9265 24 12.2757Z" fill="#EA4335"/>
<path d="M12.2418 24C15.5435 24 18.3278 22.9374 20.3565 21.1031L16.4116 18.1049C15.3141 18.8368 13.8971 19.2513 12.2463 19.2513C9.0526 19.2513 6.3447 17.1393 5.37309 14.2998H1.30225V17.3906C3.3804 21.4427 7.61318 24 12.2418 24Z" fill="#EA4335"/>
<path d="M5.36857 14.2999C4.85578 12.8096 4.85578 11.1959 5.36857 9.70557V6.61475H1.30222C-0.434074 10.0054 -0.434074 14.0001 1.30222 17.3907L5.36857 14.2999Z" fill="#EA4335"/>
<path d="M12.2418 4.74948C13.9871 4.72303 15.6739 5.36676 16.9379 6.54842L20.433 3.1225C18.2199 1.08546 15.2826 -0.0344647 12.2418 0.000808635C7.61318 0.000808635 3.3804 2.55813 1.30225 6.61456L5.36859 9.70538C6.3357 6.86147 9.0481 4.74948 12.2418 4.74948Z" fill="#EA4335"/>
</svg>
