<svg width="80" height="80" viewBox="0 0 80 80" fill="none" xmlns="http://www.w3.org/2000/svg">
<circle cx="40" cy="40" r="40" fill="#C9E67F"/>
<path d="M39.7709 49.2813L36.3773 45.8877L53.543 28.7205L56.9381 32.1141L59.2008 29.8513L50.1494 20.8L47.8867 23.0627L51.2803 26.4577L34.1145 43.625L30.7195 40.2299C30.0945 39.6049 29.0822 39.6049 28.4568 40.2299L24.5942 44.0925C22.0665 46.6187 20.8041 49.936 20.8008 53.2514C20.7993 54.9419 21.132 56.6229 21.7867 58.2155C23.3731 58.8683 25.0569 59.2014 26.7494 59.2C30.0619 59.1986 33.3792 57.9328 35.9088 55.4066L39.7713 51.544C40.3944 50.9205 40.3977 49.9062 39.7709 49.2813Z" fill="#54C39F"/>
</svg>
