<svg width="64" height="64" viewBox="0 0 64 64" fill="none" xmlns="http://www.w3.org/2000/svg">
<path d="M27.7355 46.9331C21.8443 46.9331 17.0692 42.1581 17.0692 36.2669C17.0692 32.7622 18.7819 29.6794 21.3899 27.7376C21.3732 27.7357 21.354 27.7338 21.3355 27.7338C13.0897 27.7331 6.40234 34.4186 6.40234 42.6669C6.40234 50.9146 13.0897 57.6 21.3355 57.6C29.5838 57.6 36.2692 50.9146 36.2692 42.6669C36.2692 42.6483 36.2667 42.6291 36.2667 42.6125C34.3211 45.2205 31.2401 46.9331 27.7355 46.9331Z" fill="#F6D339"/>
<path d="M45.8676 14.9331C47.6349 14.9331 49.0676 13.5005 49.0676 11.7331C49.0676 9.96583 47.6349 8.53314 45.8676 8.53314C44.1003 8.53314 42.6676 9.96583 42.6676 11.7331C42.6676 13.5005 44.1003 14.9331 45.8676 14.9331Z" fill="white"/>
<path d="M36.2672 33.0662C36.2672 34.8333 34.8381 36.2669 33.0672 36.2669C31.3001 36.2669 29.8672 34.8333 29.8672 33.0662C29.8672 31.2998 31.3001 29.8662 33.0672 29.8662C34.8381 29.8669 36.2672 31.2998 36.2672 33.0662Z" fill="white"/>
<path d="M53.3335 48C53.3335 49.767 51.905 51.2 50.1335 51.2C48.3671 51.2 46.9335 49.767 46.9335 48C46.9335 46.2329 48.3671 44.8 50.1335 44.8C51.905 44.8 53.3335 46.2329 53.3335 48Z" fill="white"/>
<path d="M12.8023 9.60002C12.8023 11.3664 11.3732 12.8 9.60234 12.8C7.8353 12.8 6.40234 11.3664 6.40234 9.60002C6.40234 7.83362 7.8353 6.40002 9.60234 6.40002C11.3732 6.40002 12.8023 7.83362 12.8023 9.60002Z" fill="white"/>
<path d="M22.3988 12.8001L19.1989 16.0001L22.3988 19.2L25.5987 16.0001L22.3988 12.8001Z" fill="white"/>
<path d="M54.3987 21.3339L51.1987 24.5339L54.3987 27.7338L57.5986 24.5339L54.3987 21.3339Z" fill="#F8DE6D"/>
<path d="M46.9305 36.2667L44.7969 38.3997L46.9299 40.5332L49.0634 38.4003L46.9305 36.2667Z" fill="#F8DE6D"/>
<path d="M34.1349 17.0656L32.0009 19.1993L34.1341 21.3329L36.2682 19.1992L34.1349 17.0656Z" fill="#F8DE6D"/>
<path d="M14.9338 23.4669C14.9338 24.6457 13.9822 25.6 12.8007 25.6C11.6238 25.6 10.6676 24.6457 10.6676 23.4669C10.6676 22.288 11.6238 21.3337 12.8007 21.3337C13.9822 21.3331 14.9338 22.2873 14.9338 23.4669Z" fill="#F8DE6D"/>
<path d="M42.6692 55.4669C42.6692 56.6458 41.7169 57.6 40.5355 57.6C39.3585 57.6 38.4023 56.6458 38.4023 55.4669C38.4023 54.2874 39.3585 53.3331 40.5355 53.3331C41.7169 53.3331 42.6692 54.2874 42.6692 55.4669Z" fill="white"/>
</svg>
