<svg width="128" height="128" viewBox="0 0 128 128" fill="none" xmlns="http://www.w3.org/2000/svg">
<circle cx="64" cy="64" r="64" fill="#D2E4F9"/>
<g clip-path="url(#clip0)">
<path d="M83.4112 68.2277C82.6964 73.3139 79.9904 77.9077 75.8887 80.9987C71.7869 84.0897 66.6252 85.4246 61.5392 84.7098C56.4532 83.995 51.8594 81.2891 48.7685 77.1872C45.6776 73.0853 44.3428 67.9236 45.0576 62.8375L34.7974 61.3955C33.7001 69.2029 35.7492 77.1263 40.4938 83.4228C45.2385 89.7193 52.29 93.873 60.0972 94.9703C67.9044 96.0675 75.8277 94.0183 82.1241 89.2735C88.4204 84.5288 92.5742 77.4771 93.6714 69.6697L83.4112 68.2277Z" fill="#1C76E3"/>
<path d="M83.5058 54.0662C86.8517 54.5364 89.9454 52.2051 90.4156 48.8591C90.8859 45.5131 88.5547 42.4194 85.2087 41.9491C81.8627 41.4789 78.7691 43.8101 78.2988 47.1562C77.8285 50.5022 80.1598 53.5959 83.5058 54.0662Z" fill="#1C76E3"/>
<path d="M58.8485 66.6087L59.3102 63.1286L59.4947 61.2313L59.576 59.7132L59.5828 58.4237L59.5266 57.2997L59.4144 56.3074L59.2572 55.4233L59.0593 54.6332L58.8229 53.9224L58.5497 53.2786L58.2459 52.6928L57.9059 52.1518L57.5234 51.6471L57.0998 51.1691L56.6181 50.7152L56.0742 50.2776L55.4561 49.8544L54.7515 49.444L53.945 49.0491L53.0218 48.6702L51.9572 48.3039L50.7158 47.955L49.2362 47.6176L47.3591 47.2715L43.887 46.7537L45.4376 36.359L49.1753 36.9192L51.4694 37.3463L53.4377 37.8048L55.2196 38.3143L56.8724 38.8903L58.4184 39.5361L59.7093 40.1709L61.0706 40.9601L62.3498 41.8375L63.5403 42.797L64.644 43.8415L65.6538 44.9699L66.5626 46.1788L67.3693 47.458L68.069 48.807L68.6653 50.2186L69.1539 51.6873L69.5373 53.2135L69.8407 54.9726L70.0136 56.6137L70.0911 58.3311L70.0764 60.155L69.9647 62.1373L69.7393 64.415L69.2677 67.9834L58.8485 66.6087Z" fill="#1C76E3"/>
</g>
<defs>
<clipPath id="clip0">
<rect width="64" height="64" fill="white" transform="translate(36.7649 31.0586) rotate(8)"/>
</clipPath>
</defs>
</svg>
