<svg width="160" height="160" viewBox="0 0 160 160" fill="none" xmlns="http://www.w3.org/2000/svg">
<path d="M0.788417 68.8675C6.93671 25.1202 47.3851 -5.35987 91.1325 0.788418C134.88 6.93671 165.36 47.3851 159.212 91.1325C153.063 134.88 112.615 165.36 68.8675 159.212C25.1202 153.063 -5.35987 112.615 0.788417 68.8675Z" fill="#B5E5ED"/>
<path d="M101.489 76.5569C99.8898 87.9363 89.3757 95.8592 77.9963 94.2599C66.6208 92.6612 58.694 82.1466 60.2933 70.7672C61.892 59.3916 72.4105 51.4654 83.786 53.0642C95.1653 54.6644 103.088 65.1813 101.489 76.5569Z" fill="#1C76E3"/>
<path d="M116.404 50.9076L112.553 45.7974L104.393 51.9466C99.5554 46.7104 92.9551 43.0432 85.3451 41.9736L84.4543 48.3117C98.4566 50.2796 108.21 63.2254 106.243 77.2257C104.275 91.228 91.331 100.981 77.3287 99.0131C65.5197 97.3534 56.7622 87.8795 55.4796 76.5537L48.9495 75.6359C49.2685 80.9128 50.9126 85.8999 53.557 90.254L45.3795 96.4162L49.2302 101.527L57.3936 95.3757C61.5483 99.8752 67.0098 103.209 73.2933 104.736L72.3787 111.244L66.0406 110.353C62.5403 109.861 59.3038 112.3 58.8119 115.8L90.5015 120.251C90.9934 116.751 88.5545 113.514 85.0542 113.022L78.7162 112.132L79.6291 105.636C95.8674 106.296 110.27 94.5485 112.58 78.1163C113.649 70.5073 111.944 63.1511 108.244 57.0587L116.404 50.9076Z" fill="#1C76E3"/>
</svg>
