<svg width="44" height="52" viewBox="0 0 44 52" fill="none" xmlns="http://www.w3.org/2000/svg">
<path d="M43.3342 23.8707C43.3368 22.6893 42.3806 21.7376 41.2011 21.7331H24.1342V17.4669H36.0529C37.2324 17.4669 38.2993 16.9875 39.0699 16.217L42.7096 12.5773C43.5454 11.744 43.5435 10.3936 42.714 9.55842L39.0705 5.91682C38.3 5.14627 37.2331 4.6669 36.0536 4.6669H24.1342V0.400024H19.868V4.6669H2.80557C1.62413 4.66498 0.671809 5.62114 0.667969 6.80002L0.669888 15.3293C0.667968 16.5107 1.62413 17.4624 2.80301 17.4669H19.868V21.7331H7.95117C6.77165 21.7331 5.70541 22.2125 4.93421 22.9831L1.29453 26.6234C0.458688 27.4567 0.461248 28.8064 1.29005 29.6423L4.93357 33.2832C5.70477 34.0544 6.77101 34.5331 7.95053 34.5331H19.8673V47.3331H15.6024C13.2459 47.3331 11.3361 49.2435 11.3361 51.6L32.6692 51.5981C32.6692 49.2416 30.7588 47.3312 28.4024 47.3312H24.1336V34.5331H41.1985C42.38 34.5357 43.3316 33.5795 43.3361 32.4L43.3342 23.8707Z" fill="white"/>
</svg>
