<svg width="383" height="600" viewBox="0 0 383 600" fill="none" xmlns="http://www.w3.org/2000/svg">
<mask id="mask0" mask-type="alpha" maskUnits="userSpaceOnUse" x="0" y="0" width="384" height="600">
<rect width="383" height="600" transform="matrix(1 8.74228e-08 8.74228e-08 -1 0.000244141 600)" fill="#C4C4C4"/>
</mask>
<g mask="url(#mask0)">
<path d="M-351.781 -117.815C16.2282 -320.603 -33.7467 -3.27716 175.793 -37.0868C304.471 -57.8425 286.581 172.734 418.625 191.293C526.736 206.484 591.129 55.2315 708.309 56.5887C838.232 58.1034 870.286 -42.1419 957.008 6.37723" stroke="#1C76E3" stroke-miterlimit="10"/>
<path d="M-359.817 -83.0981C-1.57472 -272.314 -41.3144 32.3066 165.632 1.50946C293.344 -17.2849 281.249 202.804 411.528 220.654C519.648 235.324 585.588 91.0718 700.984 92.0393C831.384 92.8948 866.036 -3.59565 948.62 42.6185" stroke="#1C76E3" stroke-miterlimit="10"/>
<path d="M-367.854 -48.3817C-19.3903 -224.017 -48.8924 67.8874 155.474 40.0946C282.229 23.2641 275.92 232.863 404.444 250.007C512.574 264.155 580.071 126.906 693.676 127.471C824.565 127.659 861.792 34.9289 940.239 78.8275" stroke="#1C76E3" stroke-miterlimit="10"/>
<path d="M-375.892 -13.6538C-37.1957 -175.717 -56.5235 103.022 145.31 78.7017C271.064 63.5461 270.597 262.947 397.343 279.39C505.482 293.016 574.535 163.06 686.347 162.943C817.714 162.796 857.527 73.4941 931.848 115.08" stroke="#1C76E3" stroke-miterlimit="10"/>
<path d="M-383.929 21.0625C-55.0115 -127.42 -64.1063 138.479 135.152 117.287C259.946 104.016 265.236 293.288 390.259 308.742C498.381 322.108 569.011 198.97 679.027 198.371C810.883 197.657 853.274 112.006 923.468 151.288" stroke="#1C76E3" stroke-miterlimit="10"/>
<path d="M-391.965 55.7794C-72.8168 -79.1206 -71.6812 173.95 124.994 155.873C248.825 144.497 259.895 323.401 383.165 338.093C491.297 350.982 563.479 234.869 671.706 233.811C804.042 232.517 849.017 150.539 915.082 187.519" stroke="#1C76E3" stroke-miterlimit="10"/>
<path d="M-400.002 90.4966C-90.6197 -30.8308 -79.2586 209.431 114.833 194.469C237.698 185 254.564 353.516 376.077 367.468C484.208 379.877 557.955 270.78 664.392 269.265C797.21 267.379 844.767 189.085 906.696 223.75" stroke="#1C76E3" stroke-miterlimit="10"/>
<path d="M-408.04 125.224C-108.438 17.4775 -86.822 244.949 104.672 233.066C226.583 225.505 249.235 383.62 368.98 396.829C477.121 408.762 552.417 306.655 657.068 304.715C790.382 302.231 840.507 227.629 898.31 259.981" stroke="#1C76E3" stroke-miterlimit="10"/>
<path d="M-416.077 159.941C-126.241 65.7668 -94.3855 280.466 94.5141 271.651C215.467 266.01 243.912 413.703 361.886 426.179C470.042 437.614 546.892 342.521 649.738 340.142C783.529 337.043 836.242 266.149 889.919 296.188" stroke="#1C76E3" stroke-miterlimit="10"/>
<path d="M-424.113 194.658C-144.046 114.067 -101.954 316.005 84.3533 310.248C204.357 306.538 238.575 443.794 354.8 455.543C462.958 466.487 541.367 378.387 642.424 375.595C776.705 371.874 831.992 304.696 881.544 332.421" stroke="#1C76E3" stroke-miterlimit="10"/>
<path d="M-432.15 229.375C-161.862 162.366 -109.514 351.558 74.2056 348.836C193.258 347.07 233.265 473.869 347.714 484.907C455.89 495.343 535.845 414.243 635.113 411.038C769.886 406.683 827.746 343.232 873.169 368.654" stroke="#1C76E3" stroke-miterlimit="10"/>
<path d="M-440.188 264.102C-179.667 210.666 -117.071 387.143 64.0449 387.432C182.154 387.622 227.936 503.928 340.628 514.27C448.811 524.194 530.325 450.088 627.799 446.491C763.057 441.49 823.496 381.778 864.783 404.885" stroke="#1C76E3" stroke-miterlimit="10"/>
<path d="M-448.225 298.819C-197.473 258.967 -124.628 422.73 53.8841 426.029C171.034 428.193 222.604 533.998 333.531 543.631C441.734 553.036 524.784 485.929 620.467 481.928C756.203 476.258 819.228 420.309 856.389 441.102" stroke="#1C76E3" stroke-miterlimit="10"/>
<path d="M-456.261 333.535C-215.286 307.254 -132.182 458.35 43.7257 464.615C159.928 468.756 217.291 564.038 326.445 572.995C434.66 581.868 519.269 521.753 613.153 517.382C749.381 511.033 814.979 458.855 848.014 477.336" stroke="#1C76E3" stroke-miterlimit="10"/>
<path d="M-464.297 368.252C-233.092 355.555 -139.749 493.979 33.565 503.211C148.814 509.351 211.964 594.087 319.349 602.356C427.575 610.696 513.735 557.562 605.831 552.822C742.543 545.782 810.721 497.389 839.628 513.566" stroke="#1C76E3" stroke-miterlimit="10"/>
<path d="M-472.336 402.98C-250.897 403.856 -147.312 529.642 23.4041 541.808C137.697 549.956 206.64 624.125 312.252 631.717C420.495 639.504 508.191 593.368 598.496 588.27C735.686 580.516 806.451 535.931 831.232 549.795" stroke="#1C76E3" stroke-miterlimit="10"/>
<path d="M-480.373 437.697C-268.713 452.156 -154.878 565.315 13.2459 580.395C126.591 590.565 201.31 654.14 305.166 661.08C413.426 668.314 502.67 629.169 591.185 623.713C728.855 615.233 802.207 574.457 822.849 586.016" stroke="#1C76E3" stroke-miterlimit="10"/>
<path d="M-488.409 472.414C-286.518 500.457 -162.449 601.01 3.0851 618.992C115.47 631.192 195.991 684.157 298.069 690.441C406.338 697.108 497.131 664.954 583.863 659.153C722.018 649.927 797.949 612.99 814.465 622.236" stroke="#1C76E3" stroke-miterlimit="10"/>
<path d="M-496.445 507.13C-304.331 548.744 -170.024 636.724 -7.07287 657.576C104.344 671.838 190.664 714.159 290.986 719.792C399.276 725.884 491.607 700.719 576.552 694.594C715.186 684.598 793.702 651.525 806.093 658.457" stroke="#1C76E3" stroke-miterlimit="10"/>
<path d="M-504.482 541.856C-322.138 597.056 -177.607 672.47 -17.2329 696.171C93.216 712.495 185.353 743.996 283.888 749.161C392.201 754.478 486.06 736.489 569.218 730.04C708.323 719.261 789.432 690.065 797.694 694.694" stroke="#1C76E3" stroke-miterlimit="10"/>
<path d="M-512.517 576.572C-339.94 645.345 -185.235 708.417 -27.3929 734.766C82.0512 753.31 180.022 774.064 276.792 778.52C385.112 783.326 480.516 772.148 561.894 765.489C701.459 753.735 785.172 728.607 789.298 730.921" stroke="#1C76E3" stroke-miterlimit="10"/>
<path d="M-520.552 611.288C113.957 932.261 780.925 767.141 780.925 767.141" stroke="#1C76E3" stroke-miterlimit="10"/>
</g>
</svg>
