<svg width="40" height="60" viewBox="0 0 40 60" fill="none" xmlns="http://www.w3.org/2000/svg">
<path d="M0 0H40V58.523C40 59.2304 39.2855 59.7142 38.6286 59.4514L20 52L1.37139 59.4514C0.714528 59.7142 0 59.2304 0 58.523V0Z" fill="#ED5C18"/>
<path d="M19.9998 31.1575L23.5787 33.7591C23.8248 33.9384 24.1693 33.9524 24.4296 33.7627C24.6897 33.5722 24.7882 33.2441 24.6897 32.9518L23.3257 28.736L26.8974 26.1278V26.1348C27.0803 26.0043 27.1998 25.789 27.1998 25.5495C27.1998 25.1475 26.8763 24.8199 26.4757 24.8199H22.0531L20.6854 20.6036C20.594 20.3152 20.3198 20.0996 19.9998 20.0996C19.6798 20.0996 19.4056 20.3152 19.3142 20.6036L17.9465 24.8199H13.5239C13.1267 24.8199 12.7998 25.1473 12.7998 25.5495C12.7998 25.789 12.9193 26.0041 13.1022 26.1348V26.1312L16.6775 28.7358C16.6775 28.7358 15.3099 32.9516 15.3135 32.9516C15.215 33.2439 15.3099 33.5721 15.5736 33.7659C15.8337 33.9522 16.1748 33.9382 16.4209 33.7589L19.9998 31.1575Z" fill="white"/>
</svg>
