<svg width="98" height="98" viewBox="0 0 98 98" fill="none" xmlns="http://www.w3.org/2000/svg">
<path d="M65.5002 58.3828L34.5906 66.665C36.0315 72.0425 40.0518 76.0398 44.9582 77.6902L38.0414 79.5435L39.4218 84.6954L70.3314 76.4132L68.951 71.2613L62.0311 73.1155C65.4572 69.2324 66.9411 63.7603 65.5002 58.3828Z" fill="#F49B71"/>
<path d="M21.1582 37.1357C23.4451 45.6707 32.2192 50.7364 40.7541 48.4495C38.4672 39.9145 29.6931 34.8488 21.1582 37.1357Z" fill="#C9E67F"/>
<path d="M34.4498 19.7694C30.4411 25.4161 32.2959 32.3383 38.5909 35.2242C42.5989 29.5776 40.7441 22.6554 34.4498 19.7694Z" fill="#C9E67F"/>
<path d="M50.2281 42.5941C61.3457 37.0568 67.4107 24.2938 64.0717 11.8325C49.8471 15.644 41.4043 30.2675 45.2157 44.4921L47.2863 52.2195L26.6796 57.741L28.06 62.8929L69.2726 51.85L67.8924 46.6989L52.4376 50.84L50.2281 42.5941Z" fill="#C9E67F"/>
<rect x="26.6787" y="57.7432" width="42.6656" height="5.33125" transform="rotate(-15 26.6787 57.7432)" fill="#F49B71"/>
</svg>
