<svg width="32" height="26" viewBox="0 0 32 26" fill="none" xmlns="http://www.w3.org/2000/svg">
<path d="M32 3.12853C30.8 3.66186 29.6 4.06186 28.2667 4.19519C29.6 3.39519 30.6667 2.06186 31.2 0.595192C29.8667 1.39519 28.5333 1.92853 27.0667 2.19519C25.8667 0.861859 24.1333 0.0618591 22.2667 0.0618591C18.6667 0.0618591 15.7333 2.99519 15.7333 6.59519C15.7333 7.12853 15.7333 7.66186 15.8667 8.06186C10.2667 7.79519 5.46667 5.12853 2.26667 1.12853C1.6 2.19519 1.33333 3.26186 1.33333 4.46186C1.33333 6.72853 2.53333 8.72853 4.26667 9.92852C3.2 9.92852 2.13333 9.66186 1.33333 9.12852C1.33333 9.12852 1.33333 9.12852 1.33333 9.26186C1.33333 12.4619 3.6 15.1285 6.53333 15.6619C6 15.7952 5.46667 15.9285 4.8 15.9285C4.4 15.9285 4 15.9285 3.6 15.7952C4.4 18.4619 6.8 20.3285 9.73333 20.3285C7.46667 22.0619 4.66667 23.1285 1.6 23.1285C1.06667 23.1285 0.533333 23.1285 0 22.9952C2.93333 24.8619 6.4 25.9285 10 25.9285C22.1333 25.9285 28.6667 15.9285 28.6667 7.26186C28.6667 6.99519 28.6667 6.72853 28.6667 6.46186C30 5.52853 31.0667 4.32853 32 3.12853Z" fill="black"/>
</svg>
