<svg width="400" height="200" viewBox="0 0 400 200" fill="none" xmlns="http://www.w3.org/2000/svg">
<mask id="mask0" mask-type="alpha" maskUnits="userSpaceOnUse" x="0" y="0" width="400" height="200">
<rect x="400" width="200" height="400" transform="rotate(90 400 0)" fill="#C4C4C4"/>
</mask>
<g mask="url(#mask0)">
<path d="M678.735 313.036C615.443 363.195 537.145 336.674 468.091 282.706C388.914 221.053 264.206 96.7656 144.915 293.511C101.117 365.749 -9.39216 412.775 -142.475 375.246C-254.057 343.788 -260.11 270.961 -349.825 242.473" stroke="#ED5C18" stroke-miterlimit="10"/>
<path d="M678.735 285.401C616.18 334.127 538.274 309.22 468.663 257.838C388.6 199.161 265.993 81.4951 144.617 268.556C99.4621 338.146 -11.1171 382.367 -142.333 345.833C-252.473 315.198 -261.271 244.745 -349.825 216.586" stroke="#ED5C18" stroke-miterlimit="10"/>
<path d="M678.735 257.768C616.917 305.052 539.521 281.594 469.228 232.97C388.412 177.067 267.601 66.256 144.312 243.602C97.7449 310.584 -12.85 351.953 -142.2 316.421C-250.897 286.601 -262.439 218.514 -349.825 190.692" stroke="#ED5C18" stroke-miterlimit="10"/>
<path d="M678.735 230.126C617.654 275.977 540.681 254.086 469.8 208.102C388.13 155.113 269.02 51.0329 144.006 218.656C95.9651 283.067 -14.5749 321.553 -142.067 287.016C-249.314 258.011 -263.6 192.299 -349.825 164.805" stroke="#ED5C18" stroke-miterlimit="10"/>
<path d="M678.734 202.491C618.391 246.907 541.826 226.575 470.364 183.232C387.824 133.166 270.227 35.8088 143.7 193.7C94.1145 255.573 -16.3079 291.143 -141.941 257.602C-247.738 229.419 -264.768 166.073 -349.833 138.91" stroke="#ED5C18" stroke-miterlimit="10"/>
<path d="M678.734 174.857C619.128 217.833 542.97 199.083 470.937 158.372C387.526 111.229 271.207 20.5701 143.394 168.754C92.1935 228.112 -18.0407 260.745 -141.808 228.198C-246.162 200.83 -265.928 139.858 -349.833 113.023" stroke="#ED5C18" stroke-miterlimit="10"/>
<path d="M678.735 147.223C619.866 188.764 544.108 171.59 471.509 133.504C387.22 89.2909 271.952 5.27607 143.096 143.799C90.2099 200.658 -19.7655 230.337 -141.667 198.785C-244.57 172.24 -267.089 113.634 -349.825 87.1364" stroke="#ED5C18" stroke-miterlimit="10"/>
<path d="M678.734 119.582C620.602 159.689 545.236 144.089 472.074 108.628C386.899 67.3455 272.438 -10.1036 142.782 118.845C88.1162 173.212 -21.4985 199.922 -141.542 169.373C-242.994 143.643 -268.249 87.411 -349.833 61.242" stroke="#ED5C18" stroke-miterlimit="10"/>
<path d="M678.735 91.9473C621.34 130.613 546.366 116.604 472.646 83.7676C386.577 45.4231 272.674 -25.5542 142.485 93.8983C85.9523 145.766 -23.2234 169.522 -141.4 139.968C-241.402 115.053 -269.41 61.1949 -349.825 35.3551" stroke="#ED5C18" stroke-miterlimit="10"/>
<path d="M678.735 64.3132C622.077 101.545 547.487 89.1266 473.211 58.8991C386.248 23.5084 272.658 -41.1462 142.179 68.9436C83.6864 118.288 -24.9562 139.114 -141.275 110.555C-239.834 86.4626 -270.578 34.971 -349.825 9.46023" stroke="#ED5C18" stroke-miterlimit="10"/>
<path d="M678.735 36.6783C622.814 72.4687 548.6 61.6564 473.783 34.0379C385.919 1.60093 272.399 -56.8797 141.873 43.9962C81.3341 90.787 -26.6812 108.714 -141.142 81.1499C-238.25 57.8721 -271.738 8.75428 -349.825 -16.4275" stroke="#ED5C18" stroke-miterlimit="10"/>
<path d="M678.735 9.03722C623.551 43.3937 549.714 34.1876 474.348 9.16261C385.574 -20.3127 271.905 -72.8072 141.567 19.0347C78.8799 63.2084 -28.414 78.2986 -141.008 51.7301C-236.666 29.275 -272.899 -17.4765 -349.825 -42.3291" stroke="#ED5C18" stroke-miterlimit="10"/>
<path d="M678.735 -18.5973C624.288 14.3254 550.827 6.73333 474.92 -15.7061C385.237 -42.2119 271.208 -88.9321 141.262 -5.91237C76.3395 35.5583 -30.1468 47.8905 -140.875 22.3249C-235.083 0.684641 -274.059 -43.6928 -349.825 -68.2085" stroke="#ED5C18" stroke-miterlimit="10"/>
<path d="M678.735 -46.2313C625.025 -14.7502 551.933 -20.7205 475.492 -40.5666C384.892 -64.0874 270.329 -105.276 140.964 -30.859C73.7285 7.81468 -31.8639 17.491 -140.742 -7.07962C-233.507 -27.9051 -275.228 -69.9087 -349.825 -94.0955" stroke="#ED5C18" stroke-miterlimit="10"/>
</g>
</svg>
