<svg width="95" height="95" viewBox="0 0 95 95" fill="none" xmlns="http://www.w3.org/2000/svg">
<g clip-path="url(#clip0)">
<path d="M77.0625 37.4509L24.8398 26.6261C21.968 26.0309 19.1301 27.8936 18.5348 30.7654L10.9575 67.3211C10.3622 70.1929 12.2256 73.0318 15.0973 73.627L67.32 84.4519C70.1918 85.0471 73.0301 83.1828 73.6253 80.311L81.2027 43.7553C81.7979 40.8835 79.9342 38.0462 77.0625 37.4509Z" fill="#1C76E3"/>
<path d="M30.7572 65.9785L35.7597 67.0154L44.0176 57.8332L52.0697 59.5022C53.5134 59.8015 54.9233 58.8764 55.2224 57.4334C55.5218 55.989 54.5958 54.5797 53.1521 54.2804L45.1 52.6114L41.173 40.9034L36.1698 39.8663L35.7461 50.6725L29.2153 49.3187L26.8173 43.3755L24.2064 42.8343L25.1935 51.209L20.9589 58.5013L23.5698 59.0425L28.1337 54.5407L34.6645 55.8944L30.7572 65.9785Z" fill="white"/>
<path d="M45.9878 69.1355L56.433 71.3006L57.5154 66.0788L47.0702 63.9137L45.9878 69.1355Z" fill="white"/>
<path d="M61.6548 72.383L66.8774 73.4655L69.0425 63.0204L63.8199 61.9378L61.6548 72.383Z" fill="white"/>
<path d="M50.3177 48.2467L71.2073 52.5768L72.29 47.3534L51.4004 43.0234L50.3177 48.2467Z" fill="white"/>
<path d="M76.4066 31.8667L75.0909 20.7017L38.1087 23.9282L76.4066 31.8667Z" fill="#1C76E3"/>
</g>
<defs>
<clipPath id="clip0">
<rect width="80" height="80" fill="white" transform="translate(16.6562 0.419434) rotate(11.7105)"/>
</clipPath>
</defs>
</svg>
