<svg width="182" height="182" viewBox="0 0 182 182" fill="none" xmlns="http://www.w3.org/2000/svg">
<circle cx="91.1774" cy="90.9998" r="80" transform="rotate(8 91.1774 90.9998)" fill="#C9E67F"/>
<g clip-path="url(#clip0)">
<path d="M96.5231 52.9741C75.5202 50.0224 56.3041 63.2321 53.598 82.4867C52.5368 90.0378 54.2051 97.385 57.8627 103.724L48.6656 119.335C47.7703 120.856 48.2773 122.815 49.7987 123.716C50.5626 124.165 51.4323 124.261 52.2248 124.057L73.6222 118.524C77.5969 120.559 81.9921 122.023 86.7263 122.689C107.733 125.641 126.947 112.418 129.652 93.1753C132.357 73.9206 117.53 55.9264 96.5231 52.9741ZM82.3144 73.597C84.9391 73.9659 86.7685 76.3936 86.3996 79.0183C86.0307 81.6431 83.6031 83.4725 80.9783 83.1036C78.3545 82.7349 76.5242 80.3071 76.893 77.6823C77.2619 75.0575 79.6906 73.2283 82.3144 73.597ZM74.4757 94.8825L79.5869 91.031C84.9762 98.176 95.1691 99.6085 102.312 94.2316L106.164 99.3419C96.1805 106.857 81.9948 104.863 74.4757 94.8825ZM103.161 86.2212C100.536 85.8523 98.7068 83.4246 99.0757 80.7999C99.4446 78.1751 101.872 76.3457 104.497 76.7146C107.121 77.0834 108.951 79.5111 108.582 82.1359C108.213 84.7607 105.785 86.5899 103.161 86.2212Z" fill="#54C39F"/>
</g>
<defs>
<clipPath id="clip0">
<rect width="96" height="96" fill="white" transform="translate(50.325 36.7871) rotate(8)"/>
</clipPath>
</defs>
</svg>
