<svg width="30" height="30" viewBox="0 0 30 30" fill="none" xmlns="http://www.w3.org/2000/svg">
<path fill-rule="evenodd" clip-rule="evenodd" d="M27.5 0.000762939H2.5C1.11875 0.000762939 0 1.11951 0 2.50076V27.5008C0 28.882 1.11875 30.0008 2.5 30.0008H16.25V18.7508H12.5V13.7508H16.25V10.517C16.25 6.64201 18.6162 4.53201 22.0737 4.53201C23.73 4.53201 25.1525 4.65576 25.5675 4.71076V8.76076L23.17 8.76201C21.29 8.76201 20.9262 9.65576 20.9262 10.9658V13.7508H26.4762L25.2262 18.7508H20.9262V30.0008H27.5C28.8812 30.0008 30 28.882 30 27.5008V2.50076C30 1.11951 28.8812 0.000762939 27.5 0.000762939Z" fill="black"/>
</svg>
