<svg width="160" height="32" viewBox="0 0 160 32" fill="none" xmlns="http://www.w3.org/2000/svg">
<rect width="160" height="32" fill="#3D4147"/>
<g id="Desktop / Home" clip-path="url(#clip0)">
<rect width="1440" height="5345" transform="translate(-32 -16)" fill="white"/>
<g id="03 Module / Navigation / Navbar / Default">
<rect id="Rectangle 35" x="-32" y="-16" width="1440" height="64" fill="white"/>
<g id="01 Fragments / Logo / Dark">
<g id="Group 4.1">
<g id="Group 2.1">
<g id="Group">
<path id="Vector" d="M25.3822 14.8791C25.3822 17.4381 24.3656 19.8924 22.5561 21.7019C20.7465 23.5114 18.2923 24.528 15.7333 24.528C13.1742 24.528 10.72 23.5114 8.91044 21.7019C7.10092 19.8924 6.08435 17.4381 6.08435 14.8791H0.921875C0.921875 18.8073 2.48236 22.5746 5.26003 25.3523C8.0377 28.13 11.805 29.6905 15.7333 29.6905C19.6615 29.6905 23.4288 28.13 26.2065 25.3523C28.9841 22.5746 30.5446 18.8073 30.5446 14.8791H25.3822Z" fill="#333333"/>
<path id="Vector_2" d="M24.4468 7.87259C26.1303 7.87259 27.4951 6.50782 27.4951 4.82428C27.4951 3.14074 26.1303 1.77596 24.4468 1.77596C22.7632 1.77596 21.3984 3.14074 21.3984 4.82428C21.3984 6.50782 22.7632 7.87259 24.4468 7.87259Z" fill="#333333"/>
<path id="Vector_3" d="M13.1496 15.7712L13.1361 14.0221L13.0955 13.0732L13.0304 12.3185L12.9443 11.6818L12.8386 11.1311L12.7145 10.6493L12.5756 10.224L12.4232 9.84785L12.2572 9.51352L12.0778 9.21484L11.8873 8.94688L11.682 8.70351L11.4583 8.48103L11.2161 8.27453L10.947 8.08401L10.6483 7.90578L10.3139 7.73984L9.93782 7.5862L9.51253 7.4473L9.0307 7.32439L8.48004 7.21745L7.84333 7.13141L7.08986 7.06749L6.13972 7.02693L4.39062 7.01218L4.43487 1.77596L6.31795 1.79317L7.4795 1.84479L8.4825 1.93452L9.39699 2.06236L10.2525 2.23198L11.06 2.44339L11.741 2.6671L12.4674 2.9621L13.1595 3.30626L13.8134 3.69714L14.4304 4.13595L15.0069 4.62269L15.5391 5.15615L16.0259 5.73139L16.4647 6.34843L16.8568 7.00358L17.1997 7.69436L17.4947 8.4208L17.7663 9.26769L17.9655 10.0654L18.1228 10.9074L18.242 11.8084L18.3244 12.7941L18.3711 13.9336L18.3858 15.7269L13.1496 15.7712Z" fill="#333333"/>
</g>
</g>
</g>
<g id="Group_2">
<path id="Vector_4" d="M39.0844 10.3388H41.9322V12.0475C42.5017 10.9084 43.6408 10.149 45.1596 10.149C47.248 10.149 48.3871 11.0982 48.9566 12.2373C49.5262 11.0982 50.8551 10.149 52.5638 10.149C56.1709 10.149 56.7405 12.617 56.7405 14.7054V22.1095H53.8927V15.0851C53.8927 13.1866 53.1333 12.2373 51.6145 12.2373C50.2856 12.2373 49.1465 12.9967 49.1465 15.6546V22.1095H46.2987V15.0851C46.2987 13.1866 45.5393 12.2373 44.2104 12.2373C42.8814 12.2373 41.7423 12.9967 41.7423 15.6546V22.1095H38.8946V10.3388H39.0844Z" fill="#333333"/>
<path id="Vector_5" d="M59.2097 16.227C59.2097 12.8097 61.4879 9.96198 65.095 9.96198C66.6138 9.96198 68.1326 10.7214 68.7022 11.8605V10.3417H71.5499V22.1124H68.7022V20.5936C67.9428 21.7327 66.424 22.4921 64.9052 22.4921C61.298 22.3022 59.2097 19.6443 59.2097 16.227ZM68.892 16.227C68.892 14.1387 67.7529 12.43 65.4747 12.43C63.3864 12.43 62.0574 13.9488 62.0574 16.227C62.0574 18.5052 63.3864 20.024 65.4747 20.024C67.7529 20.024 68.892 18.1255 68.892 16.227Z" fill="#333333"/>
<path id="Vector_6" d="M87.4981 16.227C87.4981 19.8342 85.0301 22.4921 81.6128 22.4921C80.094 22.4921 78.5752 21.7327 77.8158 20.5936V27.4282H74.968V10.3417H77.8158V11.8605C78.5752 10.7214 80.094 9.96198 81.8026 9.96198C85.2199 9.96198 87.4981 12.43 87.4981 16.227ZM84.6504 16.227C84.6504 13.9488 83.3214 12.43 81.2331 12.43C79.1447 12.43 77.8158 13.9488 77.8158 16.227C77.8158 18.5052 79.1447 20.024 81.2331 20.024C83.3214 20.024 84.6504 18.3154 84.6504 16.227Z" fill="#333333"/>
<path id="Vector_7" d="M89.2045 16.227C89.2045 12.8097 91.4827 9.96198 95.0898 9.96198C96.6086 9.96198 98.1274 10.7214 98.697 11.8605V10.3417H101.545V22.1124H98.697V20.5936C97.9376 21.7327 96.4188 22.4921 94.9 22.4921C91.103 22.3022 89.2045 19.6443 89.2045 16.227ZM98.8868 16.227C98.8868 14.1387 97.7477 12.43 95.4695 12.43C93.3812 12.43 92.0522 13.9488 92.0522 16.227C92.0522 18.5052 93.3812 20.024 95.4695 20.024C97.7477 20.024 98.8868 18.1255 98.8868 16.227Z" fill="#333333"/>
<path id="Vector_8" d="M115.784 10.3401V22.1108C115.784 24.0093 115.215 25.3383 114.265 26.2875C113.316 27.2368 111.987 27.6165 110.279 27.6165C108.57 27.6165 107.241 27.2368 106.292 26.4774C105.532 25.718 104.963 24.7687 104.963 23.4398H107.811C108 24.7687 108.57 25.5281 110.279 25.5281C111.987 25.5281 113.126 24.5789 113.126 22.1108V20.592C112.367 21.921 111.038 22.4905 109.329 22.4905C106.482 22.4905 104.963 20.4022 104.963 17.5544V10.3401H107.811V16.9849C107.811 18.6935 108.38 20.0225 110.279 20.0225C112.177 20.0225 113.126 18.5037 113.126 16.4153V10.3401H115.784Z" fill="#333333"/>
<path id="Vector_9" d="M119.201 17.7443V10.3401H121.859V17.1747C121.859 19.0732 122.428 20.2123 124.327 20.2123C126.415 20.2123 127.175 18.8834 127.175 17.1747V10.53H130.022V22.1108H127.175V20.4022C126.415 21.7311 125.276 22.3007 123.567 22.3007C120.909 22.3007 119.201 20.7819 119.201 17.7443Z" fill="#333333"/>
<path id="Vector_10" d="M144.832 4.26562V22.1115H141.985V20.5927C141.225 21.7318 139.707 22.4912 138.188 22.4912C134.391 22.4912 132.302 19.8333 132.302 16.2262C132.302 12.619 134.581 9.96113 138.188 9.96113C139.707 9.96113 141.225 10.7205 141.795 11.8596V4.26562H144.832ZM142.364 16.2262C142.364 14.1378 141.225 12.4292 138.947 12.4292C136.859 12.4292 135.53 13.948 135.53 16.2262C135.53 18.5044 136.859 20.0232 138.947 20.0232C141.225 20.0232 142.364 18.1247 142.364 16.2262Z" fill="#333333"/>
<path id="Vector_11" d="M147.491 16.227C147.491 12.8097 149.769 9.96198 153.376 9.96198C154.895 9.96198 156.414 10.7214 156.983 11.8605V10.3417H159.831V22.1124H156.983V20.5936C156.224 21.7327 154.705 22.4921 153.186 22.4921C149.579 22.3022 147.491 19.6443 147.491 16.227ZM157.173 16.227C157.173 14.1387 156.034 12.43 153.756 12.43C151.668 12.43 150.339 13.9488 150.339 16.227C150.339 18.5052 151.668 20.024 153.756 20.024C156.034 20.024 157.173 18.1255 157.173 16.227Z" fill="#333333"/>
</g>
</g>
</g>
</g>
<defs>
<clipPath id="clip0">
<rect width="1440" height="5345" fill="white" transform="translate(-32 -16)"/>
</clipPath>
</defs>
</svg>
