<?xml version="1.0" encoding="utf-8"?>
<!-- Generator: Adobe Illustrator 23.1.0, SVG Export Plug-In . SVG Version: 6.00 Build 0)  -->
<svg version="1.1" id="Capa_1" xmlns="http://www.w3.org/2000/svg" xmlns:xlink="http://www.w3.org/1999/xlink" x="0px" y="0px"
	 viewBox="0 0 160 32" style="enable-background:new 0 0 160 32;" xml:space="preserve">
<g>
	<g>
		<g>
			<g>
				<g>
					<g>
						<g id="Group">
							<path id="Vector" d="M24.6,15.1c0,2.6-1,5-2.8,6.8c-1.8,1.8-4.3,2.8-6.8,2.8c-2.6,0-5-1-6.8-2.8s-2.8-4.3-2.8-6.8H0.1
								c0,3.9,1.6,7.7,4.3,10.5C7.1,28.4,11,30,15,30c3.9,0,7.7-1.6,10.5-4.3c2.8-2.8,4.3-6.5,4.3-10.5h-5.2V15.1z"/>
							<path id="Vector_2" d="M23.7,8.1c1.7,0,3-1.4,3-3s-1.4-3-3-3c-1.7,0-3,1.4-3,3S22,8.1,23.7,8.1z"/>
							<path id="Vector_3" d="M12.4,15.9v-1.7v-0.9l-0.1-0.8l-0.1-0.6l-0.1-0.6L12,10.8l-0.1-0.4l-0.3-0.4l-0.2-0.3l-0.2-0.3L11,9.1
								l-0.1-0.2l-0.2-0.2l-0.2-0.2l-0.3-0.2L9.9,8.2L9.5,7.9L9.2,7.8L8.7,7.6L8.3,7.5L7.7,7.4L7.1,7.3L6.3,7.2h-1H3.6V2.1h1.9
								l1.2,0.1l1,0.1l0.9,0l0.9,0.2l0.8,0.2L11,2.8l0.7,0.3l0.7,0.3L13,3.9l0.6,0.4l0.6,0.5l0.5,0.5l0.5,0.6l0.4,0.6L16,7.2
								l0.4,0.7l0.3,0.7L17,9.4l0.2,0.8l0.2,0.8l0.1,0.9l0.1,1v1.1v1.8L12.4,15.9z"/>
						</g>
					</g>
				</g>
				<g id="Group_2">
					<path id="Vector_4" d="M38.3,10.6h2.8v1.7c0.6-1.1,1.7-1.9,3.2-1.9c2.1,0,3.2,0.9,3.8,2.1c0.6-1.1,1.9-2.1,3.6-2.1
						c3.6,0,4.2,2.5,4.2,4.6v7.4h-2.8v-7c0-1.9-0.8-2.8-2.3-2.8c-1.3,0-2.5,0.8-2.5,3.4v6.5h-2.8v-7c0-1.9-0.8-2.8-2.1-2.8
						s-2.5,0.8-2.5,3.4v6.5h-2.8v-12H38.3z"/>
					<path id="Vector_5" d="M58.4,16.5c0-3.4,2.3-6.3,5.9-6.3c1.5,0,3,0.8,3.6,1.9v-1.5h2.8v11.8h-2.8v-1.5
						c-0.8,1.1-2.3,1.9-3.8,1.9C60.5,22.5,58.4,19.8,58.4,16.5z M68.1,16.5c0-2.1-1.1-3.8-3.4-3.8c-2.1,0-3.4,1.5-3.4,3.8
						s1.3,3.8,3.4,3.8C67,20.2,68.1,18.3,68.1,16.5z"/>
					<path id="Vector_6" d="M86.7,16.5c0,3.6-2.5,6.3-5.9,6.3c-1.5,0-3-0.8-3.8-1.9v6.8h-2.8V10.6H77v1.5c0.8-1.1,2.3-1.9,4-1.9
						C84.4,10.1,86.7,12.6,86.7,16.5z M83.9,16.5c0-2.3-1.3-3.8-3.4-3.8s-3.4,1.5-3.4,3.8s1.3,3.8,3.4,3.8
						C82.5,20.2,83.9,18.5,83.9,16.5z"/>
					<path id="Vector_7" d="M88.4,16.5c0-3.4,2.3-6.3,5.9-6.3c1.5,0,3,0.8,3.6,1.9v-1.5h2.8v11.8h-2.8v-1.5
						c-0.8,1.1-2.3,1.9-3.8,1.9C90.3,22.5,88.4,19.8,88.4,16.5z M98.1,16.5c0-2.1-1.1-3.8-3.4-3.8c-2.1,0-3.4,1.5-3.4,3.8
						s1.3,3.8,3.4,3.8C97,20.2,98.1,18.3,98.1,16.5z"/>
					<path id="Vector_8" d="M115,10.6v11.8c0,1.9-0.6,3.2-1.5,4.2c-0.9,0.9-2.3,1.3-4,1.3s-3-0.4-4-1.1c-0.8-0.8-1.3-1.7-1.3-3h2.8
						c0.2,1.3,0.8,2.1,2.5,2.1s2.8-0.9,2.8-3.4V21c-0.8,1.3-2.1,1.9-3.8,1.9c-2.8,0-4.4-2.1-4.4-4.9v-7.2h2.8v6.6c0,1.7,0.6,3,2.5,3
						s2.8-1.5,2.8-3.6v-6.1h2.8V10.6z"/>
					<path id="Vector_9" d="M118.4,18v-7.4h2.7v6.8c0,1.9,0.6,3,2.5,3c2.1,0,2.8-1.3,2.8-3v-6.6h2.8v11.6h-2.8v-1.7
						c-0.8,1.3-1.9,1.9-3.6,1.9C120.1,22.5,118.4,21,118.4,18z"/>
					<path id="Vector_10" d="M144.1,4.4v17.8h-2.8v-1.5c-0.8,1.1-2.3,1.9-3.8,1.9c-3.8,0-5.9-2.7-5.9-6.3s2.3-6.3,5.9-6.3
						c1.5,0,3,0.8,3.6,1.9V4.4H144.1z M141.6,16.5c0-2.1-1.1-3.8-3.4-3.8c-2.1,0-3.4,1.5-3.4,3.8s1.3,3.8,3.4,3.8
						C140.4,20.2,141.6,18.3,141.6,16.5z"/>
					<path id="Vector_11" d="M146.7,16.5c0-3.4,2.3-6.3,5.9-6.3c1.5,0,3,0.8,3.6,1.9v-1.5h2.8v11.8h-2.8v-1.5
						c-0.8,1.1-2.3,1.9-3.8,1.9C148.8,22.5,146.7,19.8,146.7,16.5z M156.4,16.5c0-2.1-1.1-3.8-3.4-3.8c-2.1,0-3.4,1.5-3.4,3.8
						s1.3,3.8,3.4,3.8C155.3,20.2,156.4,18.3,156.4,16.5z"/>
				</g>
			</g>
		</g>
	</g>
</g>
</svg>
