<svg width="32" height="30" viewBox="0 0 32 30" fill="none" xmlns="http://www.w3.org/2000/svg">
<path d="M25.8125 14.1313C25.8125 16.7338 24.7787 19.2296 22.9385 21.0698C21.0983 22.91 18.6024 23.9438 16 23.9438C13.3976 23.9438 10.9017 22.91 9.06151 21.0698C7.22131 19.2296 6.1875 16.7338 6.1875 14.1313H0.9375C0.9375 18.1262 2.52444 21.9574 5.34921 24.7821C8.17397 27.6069 12.0052 29.1938 16 29.1938C19.9948 29.1938 23.826 27.6069 26.6508 24.7821C29.4756 21.9574 31.0625 18.1262 31.0625 14.1313H25.8125Z" fill="#333333"/>
<path d="M24.8603 7.00637C26.5723 7.00637 27.9603 5.61846 27.9603 3.90637C27.9603 2.19429 26.5723 0.80637 24.8603 0.80637C23.1482 0.80637 21.7603 2.19429 21.7603 3.90637C21.7603 5.61846 23.1482 7.00637 24.8603 7.00637Z" fill="#333333"/>
<path d="M13.3733 15.0389L13.3596 13.2601L13.3183 12.2951L13.2521 11.5276L13.1646 10.8801L13.0571 10.3201L12.9308 9.83012L12.7896 9.39762L12.6346 9.01512L12.4658 8.67512L12.2833 8.37137L12.0896 8.09887L11.8808 7.85137L11.6533 7.62512L11.4071 7.41512L11.1333 7.22137L10.8296 7.04012L10.4896 6.87137L10.1071 6.71512L9.67457 6.57387L9.18457 6.44887L8.62457 6.34012L7.97707 6.25262L7.21082 6.18762L6.24457 6.14637L4.46582 6.13137L4.51082 0.80637L6.42582 0.823872L7.60707 0.876369L8.62707 0.967621L9.55707 1.09762L10.4271 1.27012L11.2483 1.48512L11.9408 1.71262L12.6796 2.01262L13.3833 2.36262L14.0483 2.76012L14.6758 3.20637L15.2621 3.70137L15.8033 4.24387L16.2983 4.82887L16.7446 5.45637L17.1433 6.12262L17.4921 6.82512L17.7921 7.56387L18.0683 8.42512L18.2708 9.23637L18.4308 10.0926L18.5521 11.0089L18.6358 12.0114L18.6833 13.1701L18.6983 14.9939L13.3733 15.0389Z" fill="#333333"/>
</svg>
